<?xml version="1.0" standalone="no"?>
<!DOCTYPE svg PUBLIC "-//W3C//DTD SVG 20010904//EN"
 "http://www.w3.org/TR/2001/REC-SVG-20010904/DTD/svg10.dtd">
<svg version="1.0" xmlns="http://www.w3.org/2000/svg"
 width="1024.000000pt" height="1024.000000pt" viewBox="0 0 1024.000000 1024.000000"
 preserveAspectRatio="xMidYMid meet">

<g transform="translate(0.000000,1024.000000) scale(0.100000,-0.100000)"
fill="#000000" stroke="none">
<path d="M0 5120 l0 -5120 5120 0 5120 0 0 5120 0 5120 -5120 0 -5120 0 0
-5120z m5390 2372 c22 -12 44 -35 58 -62 22 -44 22 -49 22 -457 l0 -413 23 -5
c12 -3 209 -6 437 -8 465 -2 456 -1 502 -74 22 -37 23 -44 22 -258 -1 -185 -4
-226 -18 -253 -9 -17 -21 -32 -27 -32 -6 0 -7 -6 -3 -12 4 -7 4 -10 -1 -6 -4
4 -20 1 -36 -7 -23 -12 -98 -15 -434 -15 -343 0 -411 -2 -435 -15 l-29 -15 -3
-893 c-3 -876 -3 -893 -23 -927 -38 -65 -60 -70 -327 -70 l-238 0 -39 35 c-26
24 -42 49 -50 80 -8 30 -11 306 -11 910 l0 866 -35 15 c-28 11 -98 14 -392 12
l-358 -3 365 -5 365 -5 -380 -3 c-248 -1 -375 2 -365 8 11 7 5 10 -23 10 -53
0 -103 26 -127 65 -18 30 -20 49 -20 257 0 217 1 226 23 258 12 19 38 43 57
54 34 20 52 21 440 24 223 1 415 4 428 7 l22 5 0 403 c0 232 4 417 10 436 5
19 20 45 32 59 44 47 67 51 308 52 199 0 229 -2 260 -18z m313 -1619 c-35 -2
-91 -2 -125 0 -35 2 -7 3 62 3 69 0 97 -1 63 -3z m470 0 c-62 -2 -164 -2 -225
0 -62 1 -12 3 112 3 124 0 174 -2 113 -3z m1343 -3003 c-46 -219 -211 -386
-451 -457 -56 -16 -149 -18 -1320 -21 -693 -1 -1263 -6 -1268 -11 -5 -5 -9
-126 -9 -268 1 -251 -5 -324 -27 -346 -17 -17 -89 34 -280 197 -107 92 -192
157 -210 161 -32 7 -84 -12 -116 -42 -47 -44 -294 -252 -334 -281 -57 -40 -86
-42 -96 -4 -4 15 -7 149 -6 297 0 149 -3 275 -7 281 -4 7 -63 13 -152 17 -249
9 -357 64 -429 217 -35 75 -37 210 -4 282 45 100 108 157 213 194 54 18 110
19 2125 24 2058 5 2070 5 2140 26 67 20 209 85 230 105 17 17 18 -288 1 -371z"/>
</g>
</svg>
